<svg id="visual" viewBox="0 0 900 600" width="900" height="600" xmlns="http://www.w3.org/2000/svg" xmlns:xlink="http://www.w3.org/1999/xlink" version="1.1"><rect x="0" y="0" width="900" height="600" fill="#e4eef3"></rect><path d="M0 378L21.5 386.2C43 394.3 86 410.7 128.8 413.3C171.7 416 214.3 405 257.2 396.2C300 387.3 343 380.7 385.8 389.8C428.7 399 471.3 424 514.2 428.2C557 432.3 600 415.7 642.8 403C685.7 390.3 728.3 381.7 771.2 389.3C814 397 857 421 878.5 433L900 445L900 601L878.5 601C857 601 814 601 771.2 601C728.3 601 685.7 601 642.8 601C600 601 557 601 514.2 601C471.3 601 428.7 601 385.8 601C343 601 300 601 257.2 601C214.3 601 171.7 601 128.8 601C86 601 43 601 21.5 601L0 601Z" fill="#d3def5"></path><path d="M0 477L21.5 470.2C43 463.3 86 449.7 128.8 448.5C171.7 447.3 214.3 458.7 257.2 463.5C300 468.3 343 466.7 385.8 469.3C428.7 472 471.3 479 514.2 480.8C557 482.7 600 479.3 642.8 477.3C685.7 475.3 728.3 474.7 771.2 472.2C814 469.7 857 465.3 878.5 463.2L900 461L900 601L878.5 601C857 601 814 601 771.2 601C728.3 601 685.7 601 642.8 601C600 601 557 601 514.2 601C471.3 601 428.7 601 385.8 601C343 601 300 601 257.2 601C214.3 601 171.7 601 128.8 601C86 601 43 601 21.5 601L0 601Z" fill="#e4eaf7"></path><path d="M0 504L21.5 502.8C43 501.7 86 499.3 128.8 500.2C171.7 501 214.3 505 257.2 514.3C300 523.7 343 538.3 385.8 538.5C428.7 538.7 471.3 524.3 514.2 519.7C557 515 600 520 642.8 516.5C685.7 513 728.3 501 771.2 496.2C814 491.3 857 493.7 878.5 494.8L900 496L900 601L878.5 601C857 601 814 601 771.2 601C728.3 601 685.7 601 642.8 601C600 601 557 601 514.2 601C471.3 601 428.7 601 385.8 601C343 601 300 601 257.2 601C214.3 601 171.7 601 128.8 601C86 601 43 601 21.5 601L0 601Z" fill="#f5f6f8"></path></svg>