<svg id="visual" viewBox="0 0 900 600" width="900" height="600" xmlns="http://www.w3.org/2000/svg" xmlns:xlink="http://www.w3.org/1999/xlink" version="1.1"><rect x="0" y="0" width="900" height="600" fill="#e4eef3"></rect><path d="M0 415L21.5 425.8C43 436.7 86 458.3 128.8 474.5C171.7 490.7 214.3 501.3 257.2 495.8C300 490.3 343 468.7 385.8 467C428.7 465.3 471.3 483.7 514.2 486.5C557 489.3 600 476.7 642.8 471.3C685.7 466 728.3 468 771.2 472.3C814 476.7 857 483.3 878.5 486.7L900 490L900 601L878.5 601C857 601 814 601 771.2 601C728.3 601 685.7 601 642.8 601C600 601 557 601 514.2 601C471.3 601 428.7 601 385.8 601C343 601 300 601 257.2 601C214.3 601 171.7 601 128.8 601C86 601 43 601 21.5 601L0 601Z" fill="#f5f6f8" stroke-linecap="round" stroke-linejoin="miter"></path></svg>